<svg width="20" height="20" viewBox="0 0 20 20" fill="none" xmlns="http://www.w3.org/2000/svg">
    <path d="M5.836 17.5c-.458 0-.85-.163-1.178-.49a1.602 1.602 0 0 1-.489-1.177V5a.807.807 0 0 1-.594-.24.803.803 0 0 1-.24-.593c0-.236.08-.434.24-.595.16-.16.359-.24.594-.239h3.334c0-.236.08-.434.24-.594.16-.16.357-.24.593-.239h3.333c.236 0 .434.08.594.24.16.16.24.358.24.593h3.333c.236 0 .434.08.594.24.16.16.24.358.24.594s-.08.434-.24.594a.803.803 0 0 1-.594.239v10.833c0 .459-.163.851-.49 1.178-.327.326-.719.49-1.177.489H5.836zm0-12.5v10.833h8.333V5H5.836zm1.667 8.333c0 .236.08.434.24.595.16.16.357.24.593.239.236 0 .434-.08.594-.24.16-.16.24-.358.24-.594V7.5a.807.807 0 0 0-.24-.594.803.803 0 0 0-.594-.24.807.807 0 0 0-.594.24.803.803 0 0 0-.24.594v5.833zm3.333 0c0 .236.08.434.24.595.16.16.358.24.593.239.236 0 .434-.08.594-.24.16-.16.24-.358.24-.594V7.5a.807.807 0 0 0-.24-.594.803.803 0 0 0-.594-.24.807.807 0 0 0-.594.24.803.803 0 0 0-.24.594v5.833z" fill="#83878A"/>
</svg>
